<svg xmlns="http://www.w3.org/2000/svg" width="17" height="18" fill="none"><path fill="#239BD8" d="M8.33333 2.1412c1.14584 0 2.08337.96354 2.08337 2.14121 0 1.17766-.93753 2.1412-2.08337 2.1412-1.14583 0-2.08333-.96354-2.08333-2.1412 0-1.17767.9375-2.14121 2.08333-2.14121Zm0 10.706c2.81247 0 6.04167 1.3811 6.24997 2.1412H2.08333c.23959-.7708 3.44792-2.1412 6.25-2.1412Zm0-12.8472C6.03125 0 4.16667 1.91638 4.16667 4.28241c0 2.36603 1.86458 4.2824 4.16666 4.2824 2.30207 0 4.16667-1.91637 4.16667-4.2824C12.5 1.91638 10.6354 0 8.33333 0Zm0 10.706C5.55208 10.706 0 12.1406 0 14.9884v2.1412h16.6667v-2.1412c0-2.8478-5.5521-4.2824-8.33337-4.2824Z"/></svg>