<svg width="43" height="43" viewBox="0 0 43 43" fill="none" xmlns="http://www.w3.org/2000/svg">
<g clip-path="url(#clip0_23_212)">
<path d="M21.5 0C17.2477 0 13.0909 1.26095 9.55525 3.6234C6.01959 5.98585 3.26388 9.34369 1.6366 13.2723C0.00931554 17.2009 -0.416456 21.5238 0.413126 25.6944C1.24271 29.865 3.29039 33.696 6.29721 36.7028C9.30404 39.7096 13.135 41.7573 17.3056 42.5869C21.4762 43.4165 25.7991 42.9907 29.7277 41.3634C33.6563 39.7361 37.0142 36.9804 39.3766 33.4448C41.7391 29.9091 43 25.7523 43 21.5C42.9938 15.7998 40.7266 10.3348 36.6959 6.30408C32.6652 2.2734 27.2003 0.00622444 21.5 0ZM21.5 40.9844C17.6464 40.9844 13.8793 39.8416 10.6751 37.7007C7.47088 35.5597 4.97352 32.5167 3.49879 28.9563C2.02407 25.396 1.63821 21.4784 2.39002 17.6988C3.14183 13.9192 4.99754 10.4474 7.72248 7.72247C10.4474 4.99753 13.9192 3.14182 17.6988 2.39001C21.4784 1.6382 25.3961 2.02406 28.9564 3.49878C32.5167 4.97351 35.5597 7.47087 37.7007 10.6751C39.8416 13.8792 40.9844 17.6464 40.9844 21.5C40.9782 26.6657 38.9234 31.618 35.2707 35.2707C31.618 38.9233 26.6657 40.9782 21.5 40.9844Z" fill="white" fillOpacity="0.6"/>
<path d="M19.5247 12.0534C19.3336 11.8754 19.0809 11.7785 18.8199 11.7831C18.5588 11.7877 18.3097 11.8935 18.125 12.0781C17.9404 12.2628 17.8346 12.5119 17.83 12.773C17.8254 13.0341 17.9223 13.2868 18.1003 13.4778L26.1225 21.5L18.1003 29.5222C18.0013 29.6145 17.9219 29.7257 17.8668 29.8493C17.8117 29.973 17.7821 30.1064 17.7797 30.2417C17.7773 30.3771 17.8022 30.5115 17.8529 30.637C17.9036 30.7625 17.979 30.8765 18.0747 30.9722C18.1704 31.0679 18.2844 31.1433 18.4099 31.194C18.5354 31.2447 18.6698 31.2696 18.8051 31.2672C18.9405 31.2648 19.0739 31.2352 19.1975 31.1801C19.3212 31.125 19.4324 31.0456 19.5247 30.9466L28.2591 22.2122C28.4478 22.0232 28.5538 21.7671 28.5538 21.5C28.5538 21.2329 28.4478 20.9768 28.2591 20.7878L19.5247 12.0534Z" fill="white" fillOpacity="0.6"/>
</g>
<defs>
<clipPath id="clip0_23_212">
<rect width="43" height="43" fill="white"/>
</clipPath>
</defs>
</svg>
