<svg xmlns="http://www.w3.org/2000/svg" width="19" height="23" fill="none"><path fill="#239BD8" d="M17.3125 2.44184 15.75.835938 14.1875 2.44184 12.625.835938 11.0625 2.44184 9.5.835938 7.9375 2.44184 6.375.835938 4.8125 2.44184 3.25.835938 1.6875 2.44184.125.835938V22.248l1.5625-1.6059L3.25 22.248l1.5625-1.6059L6.375 22.248l1.5625-1.6059L9.5 22.248l1.5625-1.6059 1.5625 1.6059 1.5625-1.6059L15.75 22.248l1.5625-1.6059 1.5625 1.6059V.835938L17.3125 2.44184Zm-.5208 16.69066H2.20833V3.95139H16.7917V19.1325ZM3.25 14.7538h12.5v2.1412H3.25v-2.1412Zm0-4.2824h12.5v2.1412H3.25v-2.1412Zm0-4.28245h12.5v2.1412H3.25v-2.1412Z"/></svg>