<svg width="24" height="24" viewBox="0 0 24 24" fill="none" xmlns="http://www.w3.org/2000/svg">
<path fill-rule="evenodd" clip-rule="evenodd" d="M18.4697 19.5303C18.7626 19.8232 19.2375 19.8232 19.5304 19.5303C19.8233 19.2374 19.8233 18.7626 19.5304 18.4697L17.365 16.3043C17.3653 16.3042 17.3655 16.3041 17.3657 16.304L16.2588 15.1971C16.2586 15.1972 16.2583 15.1973 16.2581 15.1974L15.336 14.2752C15.3361 14.2751 15.3363 14.2749 15.3365 14.2748L12.2679 11.2062C12.2678 11.2064 12.2676 11.2066 12.2674 11.2067L9.79331 8.7326C9.79348 8.73243 9.79365 8.73227 9.79383 8.73211L8.07029 7.00857C8.07005 7.00867 8.06981 7.00876 8.06957 7.00886L5.53038 4.46967C5.23749 4.17678 4.76261 4.17678 4.46972 4.46967C4.17683 4.76256 4.17683 5.23744 4.46972 5.53033L18.4697 19.5303ZM12.9738 15.4421L7.80796 10.2762C7.76986 10.5119 7.75006 10.7536 7.75006 11C7.75006 13.4853 9.76478 15.5 12.2501 15.5C12.4964 15.5 12.7382 15.4802 12.9738 15.4421ZM3.94045 12.0009C4.82257 10.8838 5.80659 9.99126 6.84979 9.31806L5.76806 8.23633C4.53714 9.07764 3.39804 10.1825 2.40433 11.544C2.37105 11.5874 2.343 11.634 2.32033 11.6827C2.27305 11.7837 2.25002 11.8918 2.25 11.9993C2.24982 12.1064 2.27253 12.2144 2.31937 12.3152C2.34202 12.3642 2.3701 12.4111 2.40348 12.4548C4.94878 15.9561 8.44819 17.7536 12.0008 17.75C12.9703 17.749 13.9357 17.6139 14.8788 17.3471L13.6309 16.0992C13.0885 16.1994 12.5431 16.2494 11.9993 16.25C9.12285 16.2529 6.19798 14.8704 3.94045 12.0009ZM18.2365 15.7606C19.4657 14.9197 20.6032 13.8158 21.5957 12.456C21.629 12.4126 21.6571 12.366 21.6798 12.3173C21.7271 12.2163 21.7501 12.1081 21.7501 12.0007C21.7503 11.8932 21.7275 11.7851 21.6804 11.684C21.6578 11.6352 21.6298 11.5886 21.5966 11.5451C19.0513 8.04387 15.5519 6.24639 11.9993 6.24999C11.0319 6.25097 10.0684 6.3855 9.12714 6.6512L10.7444 8.26851C10.8279 8.2563 10.9132 8.24998 11.0001 8.24998C11.9666 8.24998 12.7501 9.03348 12.7501 9.99998C12.7501 10.0868 12.7437 10.1722 12.7315 10.2556L15.9857 13.5098C16.4684 12.7928 16.7501 11.9293 16.7501 11C16.7501 10.1744 16.5277 9.40066 16.1396 8.73551C17.5581 9.43841 18.8973 10.5216 20.0597 11.9991C19.1788 13.1145 18.1964 14.0061 17.1549 14.679L18.2365 15.7606Z" fill="#B4B4B4"/>
</svg>
