<svg width="32" height="32" viewBox="0 0 32 32" fill="none" xmlns="http://www.w3.org/2000/svg">
<g filter="url(#filter0_d_1_528)">
<rect x="1.7605" y="0.32373" width="29.1268" height="29.1268" rx="14.5634" fill="white"/>
<path fill-rule="evenodd" clip-rule="evenodd" d="M17.1311 15.5649C15.9717 16.4924 14.5521 17.9046 13.598 19.8128L15.0782 20.5529C15.8894 18.9306 17.1177 17.6949 18.1649 16.8572C18.6856 16.4406 19.1534 16.1289 19.4883 15.9228C19.6556 15.8199 19.789 15.7437 19.8785 15.6944C19.9232 15.6697 19.9569 15.6518 19.9782 15.6406L20.0008 15.6288L20.0043 15.627C20.0043 15.627 20.0043 15.6271 20.0039 15.6264L20.004 14.1479C20.0043 14.1472 20.0043 14.1472 20.0044 14.1472L20.0008 14.1454L19.9782 14.1337C19.9569 14.1225 19.9232 14.1045 19.8785 14.0799C19.789 14.0305 19.6556 13.9543 19.4884 13.8514C19.1534 13.6453 18.6856 13.3336 18.1649 12.917C17.1177 12.0792 15.8894 10.8435 15.0782 9.22119L13.598 9.96128C14.5521 11.8696 15.9717 13.2818 17.1311 14.2093C17.4594 14.472 17.7695 14.6979 18.046 14.8871C17.7695 15.0763 17.4594 15.3022 17.1311 15.5649ZM20.005 15.6267C20.0052 15.6266 20.0051 15.6266 20.0049 15.6268L20.005 15.6267Z" fill="black"/>
</g>
<defs>
<filter id="filter0_d_1_528" x="0.760498" y="0.32373" width="31.1267" height="31.127" filterUnits="userSpaceOnUse" color-interpolation-filters="sRGB">
<feFlood flood-opacity="0" result="BackgroundImageFix"/>
<feColorMatrix in="SourceAlpha" type="matrix" values="0 0 0 0 0 0 0 0 0 0 0 0 0 0 0 0 0 0 127 0" result="hardAlpha"/>
<feOffset dy="1"/>
<feGaussianBlur stdDeviation="0.5"/>
<feColorMatrix type="matrix" values="0 0 0 0 0 0 0 0 0 0.0556863 0 0 0 0 0.2 0 0 0 0.05 0"/>
<feBlend mode="normal" in2="BackgroundImageFix" result="effect1_dropShadow_1_528"/>
<feBlend mode="normal" in="SourceGraphic" in2="effect1_dropShadow_1_528" result="shape"/>
</filter>
</defs>
</svg>
