<svg width="65" height="50" viewBox="0 0 65 50" fill="none" xmlns="http://www.w3.org/2000/svg">
<g clip-path="url(#clip0_4_239)">
<path d="M22.9277 16.5071H0.96875V19.5696H22.9277V16.5071Z" fill="#226FB7"/>
<path d="M22.9277 22.8839H6.91174V25.9464H22.9277V22.8839Z" fill="#226FB7"/>
<path d="M22.9277 30.0969H12.9177V33.1594H22.9277V30.0969Z" fill="#226FB7"/>
<path d="M64.4767 15.2859C63.9657 14.7132 63.1067 14.335 62.1377 14.335H31.5687C30.6197 14.335 29.7807 14.7002 29.2657 15.2529L46.9087 26.5161L64.4767 15.2859Z" fill="#226FB7"/>
<path d="M28.7377 17.1724V33.164C28.7377 34.3561 30.0117 35.3315 31.5687 35.3315H62.1377C63.6947 35.3315 64.9687 34.3561 64.9687 33.164V17.2298L46.9097 28.7739L28.7377 17.1724Z" fill="#226FB7"/>
</g>
<defs>
<clipPath id="clip0_4_239">
<rect width="64" height="49" fill="white" transform="translate(0.96875 0.333252)"/>
</clipPath>
</defs>
</svg>
