<svg width="42" height="42" viewBox="0 0 42 42" fill="none" xmlns="http://www.w3.org/2000/svg">
<g clip-path="url(#clip0_10_408)">
<path d="M21.0266 42C9.42205 42 0 32.5779 0 21.0266C0 9.47528 9.42205 0 21.0266 0C32.6312 0 42.0532 9.42205 42.0532 21.0266C42.0532 32.6312 32.5779 42 21.0266 42ZM21.0266 1.59696C10.327 1.59696 1.59696 10.327 1.59696 21.0266C1.59696 31.7262 10.327 40.4563 21.0266 40.4563C31.7262 40.4563 40.4563 31.7262 40.4563 21.0266C40.4563 10.327 31.7262 1.59696 21.0266 1.59696Z" fill="#226FB7"/>
<path d="M30.6084 29.3309C30.6084 29.9164 30.1293 30.3955 29.5437 30.3955H24.5399V22.8366H27.0951L27.4677 19.9088H24.5399V18.0457C24.5399 17.194 24.7529 16.6084 25.9772 16.6084H27.5209V13.9468C27.2548 13.8936 26.3498 13.8404 25.232 13.8404C22.9962 13.8404 21.4525 15.2244 21.4525 17.7263V19.9088H18.8974V22.8366H21.4525V30.3955H12.1369C11.5514 30.3955 11.0723 29.9164 11.0723 29.3309V11.924C11.0723 11.3385 11.5514 10.8594 12.1369 10.8594H29.5437C30.1293 10.8594 30.6084 11.3385 30.6084 11.924V29.3309Z" fill="#226FB7"/>
</g>
<defs>
<clipPath id="clip0_10_408">
<rect width="42" height="42" fill="white"/>
</clipPath>
</defs>
</svg>
