<svg width="42" height="42" viewBox="0 0 42 42" fill="none" xmlns="http://www.w3.org/2000/svg">
<path d="M21.0266 42C9.42205 42 0 32.5779 0 21.0266C0 9.47528 9.42205 0 21.0266 0C32.6312 0 42.0532 9.42205 42.0532 21.0266C42.0532 32.6312 32.5779 42 21.0266 42ZM21.0266 1.59696C10.327 1.59696 1.59696 10.327 1.59696 21.0266C1.59696 31.7262 10.327 40.4563 21.0266 40.4563C31.7262 40.4563 40.4563 31.7262 40.4563 21.0266C40.4563 10.327 31.7262 1.59696 21.0266 1.59696Z" fill="#226FB7"/>
<path d="M16.9278 19.4829V22.1977C16.9278 22.1977 19.5361 22.1977 20.6008 22.1977C20.0152 23.9544 19.1103 24.9126 16.9278 24.9126C14.692 24.9126 12.9354 23.1027 12.9354 20.8669C12.9354 18.6312 14.692 16.8213 16.9278 16.8213C18.0989 16.8213 18.8973 17.2472 19.5894 17.8327C20.1749 17.2472 20.1217 17.1939 21.5057 15.8631C20.2814 14.7453 18.6844 14.1065 16.9278 14.1065C13.1483 14 10.1141 17.0342 10.1141 20.8137C10.1141 24.5932 13.1483 27.6806 16.9278 27.6806C22.5703 27.6806 23.9544 22.7833 23.4753 19.4829H16.9278Z" fill="#226FB7"/>
<path d="M29.2243 19.6425V17.2471H27.5209V19.6425H25.0722V21.2927H27.5209V23.7414H29.2243V21.2927H31.5665V19.6425H29.2243Z" fill="#226FB7"/>
</svg>
