<svg xmlns="http://www.w3.org/2000/svg" width="18" height="22" fill="none"><path fill="#239BD8" d="M8.97917.224609C4.09375.224609.125 4.3036.125 9.32472c0 5.02108 3.96875 9.10008 8.85417 9.10008H9.5v3.2118c5.0625-2.5052 8.3333-7.4942 8.3333-12.31188 0-5.02112-3.9687-9.100111-8.85413-9.100111ZM10.0208 15.7483H7.9375v-2.1412h2.0833v2.1412Zm0-3.7471H7.9375c0-3.47943 3.125-3.21178 3.125-5.35298 0-1.17766-.9375-2.1412-2.08333-2.1412-1.14584 0-2.08334.96354-2.08334 2.1412H4.8125c0-2.36603 1.86458-4.28241 4.16667-4.28241 2.30213 0 4.16663 1.91638 4.16663 4.28241 0 2.6765-3.125 2.94415-3.125 5.35298Z"/></svg>