<svg width="24" height="24" viewBox="0 0 24 24" fill="none" xmlns="http://www.w3.org/2000/svg">
<path fill-rule="evenodd" clip-rule="evenodd" d="M12.0008 17.75C15.5526 17.7464 19.0507 15.9427 21.5954 12.4564C21.6308 12.4104 21.6602 12.3608 21.6836 12.3089C21.727 12.2132 21.7488 12.1112 21.7501 12.0097C21.7516 11.8978 21.7282 11.7849 21.6784 11.6798C21.6563 11.6327 21.6291 11.5877 21.5969 11.5455C19.0516 8.04403 15.5521 6.2464 11.9993 6.25001C8.44751 6.2536 4.9494 8.05729 2.40466 11.5436C2.36949 11.5894 2.34014 11.6387 2.3168 11.6904C2.27325 11.7862 2.25136 11.8883 2.25008 11.9899C2.24848 12.1022 2.272 12.2155 2.32205 12.3209C2.34415 12.3677 2.37122 12.4125 2.40315 12.4544C4.94847 15.9559 8.44804 17.7536 12.0008 17.75ZM11.9993 16.25C9.12285 16.2529 6.19798 14.8704 3.94045 12.0009C5.29099 10.2907 6.88039 9.10661 8.55533 8.43046C8.04771 9.159 7.75006 10.0447 7.75006 11C7.75006 13.4853 9.76478 15.5 12.2501 15.5C14.7353 15.5 16.7501 13.4853 16.7501 11C16.7501 10.1744 16.5277 9.40067 16.1396 8.73551C17.5581 9.43841 18.8973 10.5216 20.0597 11.9991C17.8017 14.8583 14.8761 16.2471 11.9993 16.25ZM12.7501 10C12.7501 10.9665 11.9666 11.75 11.0001 11.75C10.0336 11.75 9.25006 10.9665 9.25006 10C9.25006 9.0335 10.0336 8.25 11.0001 8.25C11.9666 8.25 12.7501 9.0335 12.7501 10Z" fill="#B4B4B4"/>
</svg>
