<svg xmlns="http://www.w3.org/2000/svg" width="35" height="35" fill="none"><g clip-path="url(#a)"><path fill="#226FB7" d="M17.5002.5C8.11206.5.500244 8.11183.500244 17.5c0 9.388 7.611816 17 16.999956 17 9.3882 0 16.9998-7.612 16.9998-17 .0001-9.38817-7.6116-17-16.9998-17Zm8.9771 24.8049-1.3611 1.3614c-.2431.2427-.9546.3941-.9775.3941-4.3061.0376-8.4522-1.6538-11.4985-4.7005-3.05466-3.0564-4.74803-7.2173-4.70255-11.5379 0-.0019.15584-.6931.39864-.93362l1.36109-1.3613c.49802-.50039 1.45482-.72651 2.12512-.50228l.2863.09551c.6683.22402 1.3699.96294 1.5545 1.64369l.6847 2.5129c.1846.6828-.0644 1.654-.5623 2.1521l-.9089.909c.8923 3.3033 3.4842 5.8957 6.7882 6.7902l.9084-.9092c.5004-.5004 1.4713-.7492 2.1526-.5648l2.5126.6871c.6809.1871 1.4196.8843 1.6436 1.5524l.0955.2904c.222.6684-.0024 1.6249-.5004 2.1208Z"/></g><defs><clipPath id="a"><path fill="#fff" d="M.5.5h34v34H.5z"/></clipPath></defs></svg>