<svg xmlns="http://www.w3.org/2000/svg" width="23" height="22" fill="none"><path fill="#239BD8" fill-rule="evenodd" d="M14.8958 10.7272c0 1.7259-1.539 3.125-3.4375 3.125-1.89845 0-3.43747-1.3991-3.43747-3.125 0-1.72588 1.53902-3.12499 3.43747-3.12499 1.8985 0 3.4375 1.39911 3.4375 3.12499Zm-2.2916 0c0 .5753-.513 1.0417-1.1459 1.0417-.6328 0-1.1458-.4664-1.1458-1.0417 0-.5753.513-1.04165 1.1458-1.04165.6329 0 1.1459.46635 1.1459 1.04165Z" clip-rule="evenodd"/><path fill="#239BD8" fill-rule="evenodd" d="M11.4584.310547c-.8643 0-1.4577.434871-1.81758.896103-.33163.42508-.52224.9361-.64858 1.3294-.0608.18929-.11472.37863-.16152.54301l-.01211.04252c-.04968.17426-.08995.31281-.12931.42834-.38731.12349-.76149.27209-1.12016.4436-.08423-.04635-.18049-.10206-.29442-.16872l-.06105-.03576c-.14029-.08221-.30122-.17652-.46492-.26695-.3572-.19734-.84872-.44679-1.37295-.55609-.56719-.11825-1.33254-.09596-1.94646.46215-.60924.55385-.63999 1.24753-.5267 1.75826.10663.48072.36335.93819.57178 1.27706.09795.15924.20012.31524.28926.45133l.03053.04663c.08271.1264.15032.23084.20513.32147-.16684.2981-.31277.60762-.43597.92696-.12708.03578-.27949.07239-.47118.11755l-.04666.01098c-.18083.04255-.3892.09158-.59744.14686-.43264.11485-.99477.28812-1.462371.58962C.47835 9.40201 0 9.94147 0 10.7272c0 .7858.47835 1.3252.985719 1.6524.467601.3015 1.029731.4747 1.462371.5896.20829.0553.41665.1043.5975.1469l.0466.0109c.19169.0452.3441.0818.47119.1176.12122.3142.26444.6189.42795.9126-.05501.0858-.12179.1842-.20303.3032l-.01623.0237c-.09588.1403-.20745.3036-.31447.4722-.21509.3388-.48072.8016-.58483 1.2971-.11335.5395-.04859 1.2227.55657 1.7729.60873.5534 1.36244.6085 1.96209.4897.54113-.1073 1.03854-.3655 1.39552-.569.17375-.0991.3425-.2022.48738-.2907l.03636-.0222c.10608-.0647.19598-.1193.27509-.1653.3536.1682.72219.3141 1.10351.4357.03936.1155.07964.2541.12932.4283l.01207.0424c.04681.1644.10074.3538.16156.5432.12634.3933.31695.9043.64858 1.3294.35988.4612.95328.8961 1.81758.8961s1.4577-.4349 1.8175-.8961c.3317-.4251.5223-.9361.6486-1.3294.0608-.1894.1148-.3788.1616-.5432l.012-.0423c.0497-.1743.09-.3129.1293-.4284.3814-.1216.75-.2675 1.1036-.4357.0791.046.169.1006.275.1653l.0365.0223c.1448.0885.3136.1916.4873.2906.3569.2035.8543.4617 1.3955.569.5996.1188 1.3533.0637 1.962-.4897.6052-.5502.6699-1.2334.5566-1.7729-.1041-.4955-.3697-.9583-.5848-1.2971-.107-.1685-.2186-.3318-.3144-.4721l-.0163-.0238c-.0812-.119-.148-.2173-.203-.3032.1635-.2937.3067-.5984.428-.9126.127-.0358.2794-.0724.4711-.1176l.0468-.011c.1808-.0425.3891-.0915.5973-.1468.4326-.1149.9947-.2882 1.4623-.5896.5074-.3272.9857-.8666.9858-1.6523 0-.78579-.4783-1.32527-.9857-1.65242-.4676-.3015-1.0297-.47478-1.4624-.58963-.2082-.05529-.4166-.10431-.5974-.14687l-.0467-.01097c-.1916-.04516-.3441-.08178-.4711-.11756-.1213-.31422-.2645-.61894-.428-.91263.055-.08586.1218-.18422.203-.30317l.0163-.02378c.0958-.14033.2074-.30362.3144-.47218.2151-.33876.4807-.80154.5848-1.29709.1133-.53948.0486-1.22268-.5566-1.77283-.6087-.55342-1.3624-.60859-1.962-.4897-.5412.10729-1.0386.36549-1.3955.56897-.1737.09903-.3425.20211-.4873.29061l-.0365.02225c-.106.06477-.1959.11928-.275.16529-.3536-.16817-.7222-.31409-1.1036-.43567-.0393-.11553-.0796-.25408-.1293-.42834l-.012-.04235c-.0468-.16441-.1008-.35383-.1616-.54318-.1263-.3933-.3169-.90432-.6486-1.3294-.3598-.461232-.9532-.896103-1.8175-.896103ZM9.72272 5.43486c.50118-.13561.76308-.48102.87598-.65729.1268-.19783.2114-.41405.2704-.5844.062-.17858.118-.37378.1679-.54896l.0107-.03768c.0484-.16995.0939-.32943.1443-.4865.0945-.29396.1831-.49995.2664-.63349.0832.13354.1719.33953.2663.63349.0505.15705.0959.31644.1443.48637l.0107.03781c.05.17518.106.37038.1679.54896.0591.17035.1436.38657.2704.5844.113.17627.3748.52168.876.65729.4933.13348.9607.32259 1.3933.55957.4895.26812.9799.16592 1.19.10668.2386-.0673.4557-.17627.6122-.26117.1665-.09038.3407-.19639.4943-.29017l.0315-.01925c.1504-.09185.2903-.17729.4319-.25802.1284-.07319.2396-.13131.3351-.1764-.0509.10137-.1194.22096-.208.36059-.088.13861-.1819.27601-.2822.4229l-.0106.01553c-.099.14495-.2102.30789-.3046.46246-.0892.1461-.2005.34332-.2689.55573-.0579.17974-.1673.61607.1115 1.05424.235.36932.4241.76536.5604 1.1818.1492.45566.5292.69369.7231.79638.2176.11527.4554.19207.6428.24577.1965.0563.4112.1072.6039.1526l.0415.0098c.187.044.3623.0853.5351.1312.3234.0858.55.1664.6968.2421-.1468.0757-.3735.1563-.6969.2422-.1728.0458-.3481.0871-.535.1311l-.0416.0098c-.1927.0454-.4074.0963-.6038.1526-.1874.0537-.4252.1305-.6429.2458-.1939.1027-.5738.3407-.723.7964-.1363.4164-.3254.8125-.5604 1.1818-.2788.4381-.1694.8745-.1115 1.0542.0684.2124.1797.4096.2689.5558.0944.1545.2056.3175.3046.4624l.0107.0156c.1003.1469.1941.2843.2821.4228.0886.1397.1571.2593.208.3606-.0955-.0451-.2067-.1032-.3351-.1764-.1416-.0807-.2815-.1661-.4319-.258l-.0315-.0192c-.1536-.0938-.3278-.1998-.4943-.2902-.1565-.0849-.3736-.1939-.6122-.2612-.2101-.0592-.7005-.1614-1.19.1067-.4326.237-.9.4261-1.3933.5596-.5012.1356-.763.481-.876.6573-.1268.1978-.2113.414-.2704.5844-.0619.1785-.1179.3737-.1679.5489l-.0107.0378c-.0484.17-.0938.3293-.1443.4864-.0944.294-.1831.5-.2663.6335-.0833-.1335-.1719-.3395-.2664-.6335-.0504-.1571-.0958-.3165-.1443-.4865l-.0107-.0377c-.0499-.1752-.1059-.3704-.1679-.5489-.059-.1704-.1436-.3866-.2704-.5844-.1129-.1763-.3748-.5217-.87598-.6573-.49333-.1335-.96067-.3226-1.39329-.5596-.48946-.2681-.97991-.1659-1.18997-.1067-.2386.0673-.45573.1763-.61221.2612-.16656.0904-.34068.1964-.49428.2902l-.03153.0192c-.15039.0919-.29027.1773-.43189.258-.12843.0732-.23965.1314-.33517.1765.05085-.1014.11933-.221.20799-.3606.08799-.1386.18183-.276.28214-.4229l.01067-.0156c.099-.1449.21019-.3079.30458-.4624.08922-.1461.20053-.3433.26894-.5557.05789-.1798.16735-.6161-.11148-1.0543-.235-.3693-.42408-.7654-.56041-1.1818-.14918-.4557-.52915-.6937-.72304-.7964-.21762-.1153-.45547-.1921-.64286-.2458-.19644-.0563-.41116-.1072-.60386-.1526l-.04148-.0098c-.18695-.044-.36234-.0853-.53512-.1311-.3234-.0859-.55002-.1665-.69691-.2422.14689-.0757.37351-.1563.69691-.2421.17276-.0459.34809-.0872.53501-.1312l.04159-.0098c.1927-.0454.40742-.0963.60386-.1526.18739-.0537.42524-.1305.64286-.24577.19389-.10269.57386-.34072.72304-.79638.13633-.41644.32541-.81248.56041-1.1818.27379-.43028.17329-.86067.1198-1.03862-.06379-.21217-.16968-.41073-.2564-.56016-.09158-.15783-.1994-.32347-.29685-.4724l-.03029-.04627c-.09116-.13922-.17707-.27044-.25886-.4034-.06145-.09992-.11371-.19022-.1574-.27149.07324.03645.15357.07872.24144.12726.13572.07498.26901.15306.41119.23635l.06458.03782c.15798.09243.33518.19539.50541.28319.16026.08267.37902.18647.6174.2493.20781.05477.69147.14863 1.17219-.1147.43262-.23698.89996-.42609 1.39329-.55957Z" clip-rule="evenodd"/></svg>