<svg width="37" height="40" viewBox="0 0 37 40" fill="none" xmlns="http://www.w3.org/2000/svg">
<path d="M14.26 16.7828L11.5325 19.2072L18.6267 25.5132V20.664L14.26 16.7828Z" fill="#53C1FF"/>
<path d="M18.6267 0C13.5098 3.32643 7.22377 5.30484 0.413025 5.35003V14.7376C0.413025 25.9447 7.87673 35.6031 18.6267 40C29.375 35.6031 36.8369 25.9444 36.8369 14.7376V5.35003C30.027 5.30484 23.7374 3.32643 18.6267 0ZM18.6267 25.5132L18.6263 25.5124L18.6267 35.9719C9.96374 31.7531 4.46302 23.5927 4.46302 14.7376V8.72277C9.49493 8.18362 14.2996 6.69599 18.6255 4.33359L18.6264 20.6636L18.6268 20.664L25.9267 14.1756L28.6542 16.5999L18.6267 25.5132Z" fill="#53C1FF"/>
</svg>
