<svg xmlns="http://www.w3.org/2000/svg" width="46" height="45" fill="none"><path fill="#53C1FF" d="m22.875 0 5.1998 3.01296h6.0259l3.0129 5.24838 5.2484 3.01296v6.0259L45.375 22.5l-3.013 5.1998v6.0259l-5.2484 3.013-3.0129 5.2483h-6.0259L22.875 45l-5.1998-3.013h-6.0259l-3.01297-5.2483-5.24838-3.013v-6.0259L.374989 22.5l3.012961-5.1998v-6.0259l5.24838-3.01296 3.01297-5.24838h6.0259L22.875 0Z"/><path fill="#fff" d="M22.875 38.974c-9.0875 0-16.47407-7.3866-16.47407-16.474 0-9.0875 7.38657-16.47412 16.47407-16.47412 9.0875 0 16.4741 7.38662 16.4741 16.47412 0 9.0874-7.3866 16.474-16.4741 16.474Zm0-31.53883C14.5651 7.43517 7.81022 14.19 7.81022 22.5c0 8.3099 6.75488 15.0648 15.06478 15.0648S37.9398 30.8099 37.9398 22.5c0-8.31-6.7549-15.06483-15.0648-15.06483Z"/><path fill="#226FB7" d="m21.0769 28.6231-7.1436-5.6857c-.5831-.486-.6803-1.3121-.1944-1.8953.486-.5831 1.3121-.6803 1.8953-.1944l6.1231 4.9083 8.1641-9.1361c.486-.5346 1.3607-.5832 1.8953-.0972.5345.486.5831 1.3607.0972 1.8952l-8.9903 10.0594c-.486.5346-1.3121.5832-1.8467.1458Z"/></svg>