<svg xmlns="http://www.w3.org/2000/svg" width="45" height="45" fill="none"><path fill="#53C1FF" d="M5.88517 7.0314V1.40626C5.88517.62889 6.50117 0 7.26279 0c.76126 0 1.37726.62889 1.37726 1.40626V7.0314c0 .77719-.616 1.40608-1.37726 1.40608-.76162.00009-1.37762-.62889-1.37762-1.40608ZM29.3018 8.43757c.761 0 1.3774-.62889 1.3774-1.40608V1.40626C30.6792.62889 30.0628 0 29.3018 0c-.7615 0-1.3779.62889-1.3779 1.40626V7.0314c0 .77719.6164 1.40617 1.3779 1.40617ZM44.4532 33.7497c0 6.2134-4.9339 11.2504-11.0195 11.2504-6.0851 0-11.0193-5.037-11.0193-11.2504 0-6.2125 4.9341-11.2497 11.0193-11.2497 6.0856 0 11.0195 5.0372 11.0195 11.2497Zm-2.7545 0c0-4.6521-3.7073-8.4374-8.2649-8.4374-4.5572 0-8.2645 3.7853-8.2645 8.4374 0 4.653 3.7073 8.4378 8.2645 8.4378 4.5576 0 8.2649-3.7848 8.2649-8.4378ZM11.395 16.875H5.88517V22.5H11.395v-5.625ZM5.88517 30.9376H11.395v-5.6253H5.88517v5.6253ZM14.1497 22.5h5.51v-5.625h-5.51V22.5Zm0 8.4376h5.51v-5.6253h-5.51v5.6253ZM3.13046 33.4701V14.0624H33.4338v5.6252h2.755V8.71784c0-1.70842-1.3347-3.09289-2.9835-3.09289h-1.1489v1.40654c0 1.5489-1.2351 2.81243-2.7545 2.81243-1.5199 0-2.7549-1.26353-2.7549-2.81243V5.62495H10.0174v1.40654c0 1.5489-1.23482 2.81243-2.75452 2.81243-1.52006 0-2.75497-1.26353-2.75497-2.81243V5.62495H3.36038c-1.64896 0-2.984892 1.38447-2.984892 3.09289V33.4702c0 1.7028 1.335932 3.0926 2.984892 3.0926H19.6597v-2.813H3.36038c-.12481-.0001-.22992-.1317-.22992-.2797ZM27.9239 22.5v-5.625h-5.5094V22.5h5.5094Zm9.6422 11.2497h-4.1324v-4.2189c0-.7769-.616-1.4058-1.3774-1.4058-.7615 0-1.3771.6289-1.3771 1.4058v5.6256c0 .777.6156 1.4063 1.3771 1.4063h5.5098c.7615 0 1.3775-.6293 1.3775-1.4063 0-.7773-.616-1.4067-1.3775-1.4067Z"/></svg>