<svg width="32" height="32" viewBox="0 0 32 32" fill="none" xmlns="http://www.w3.org/2000/svg">
<g clip-path="url(#clip0_3_126)">
<path d="M16 32C24.8365 32 32 24.8365 32 16C32 7.16347 24.8365 0 16 0C7.16347 0 0 7.16347 0 16C0 24.8365 7.16347 32 16 32Z" fill="#25D366"/>
<path fill-rule="evenodd" clip-rule="evenodd" d="M16.5274 24.9017H16.5235C14.9311 24.9012 13.3665 24.5016 11.9769 23.7436L6.93332 25.0667L8.28305 20.1366C7.45045 18.6937 7.01239 17.057 7.01305 15.3802C7.01519 10.1345 11.2832 5.8667 16.5273 5.8667C19.0724 5.8678 21.4612 6.85864 23.2575 8.65697C25.0537 10.4552 26.0424 12.8456 26.0414 15.3877C26.0393 20.6322 21.773 24.8996 16.5274 24.9017ZM12.2106 22.0213L12.4993 22.1926C13.7135 22.9132 15.1052 23.2944 16.5242 23.2949H16.5274C20.8859 23.2949 24.4333 19.7474 24.435 15.3872C24.4359 13.2742 23.6141 11.2874 22.1211 9.79271C20.6281 8.29797 18.6427 7.47437 16.5305 7.47364C12.1686 7.47364 8.62119 11.0208 8.61945 15.3808C8.61885 16.875 9.03692 18.3301 9.82845 19.5891L10.0165 19.8883L9.21765 22.8064L12.2106 22.0213ZM20.9949 17.436C21.1607 17.5162 21.2727 17.5703 21.3205 17.6501C21.3799 17.7492 21.3799 18.2252 21.1819 18.7806C20.9837 19.3359 20.034 19.8427 19.5773 19.9109C19.1677 19.9722 18.6494 19.9977 18.0799 19.8167C17.7347 19.7072 17.2919 19.5609 16.7247 19.316C14.4961 18.3536 12.99 16.1936 12.7053 15.7854C12.6854 15.7568 12.6715 15.7368 12.6637 15.7264L12.6618 15.7238C12.536 15.556 11.693 14.4312 11.693 13.2672C11.693 12.1722 12.2309 11.5982 12.4785 11.334C12.4955 11.316 12.5111 11.2993 12.525 11.284C12.7429 11.046 13.0005 10.9865 13.1589 10.9865C13.3174 10.9865 13.4761 10.988 13.6146 10.995C13.6317 10.9958 13.6495 10.9957 13.6678 10.9956C13.8063 10.9948 13.9791 10.9938 14.1495 11.403C14.215 11.5605 14.3109 11.794 14.4121 12.0403C14.6166 12.5383 14.8427 13.0886 14.8824 13.1682C14.9419 13.2872 14.9815 13.426 14.9022 13.5846C14.8903 13.6084 14.8793 13.6309 14.8688 13.6524C14.8093 13.7739 14.7655 13.8632 14.6645 13.9812C14.6248 14.0276 14.5837 14.0776 14.5427 14.1276C14.4609 14.2272 14.3791 14.3268 14.3079 14.3977C14.1889 14.5162 14.065 14.6448 14.2037 14.8828C14.3423 15.1208 14.8195 15.8993 15.5261 16.5297C16.2859 17.2073 16.9461 17.4937 17.2808 17.6388C17.3461 17.6672 17.3991 17.6902 17.4379 17.7096C17.6755 17.8286 17.8142 17.8087 17.9529 17.6501C18.0916 17.4914 18.5472 16.9559 18.7056 16.718C18.8641 16.4801 19.0226 16.5197 19.2405 16.599C19.4585 16.6784 20.6272 17.2534 20.8649 17.3724C20.9113 17.3956 20.9547 17.4166 20.9949 17.436Z" fill="#FDFDFD"/>
</g>
<defs>
<clipPath id="clip0_3_126">
<rect width="32" height="32" fill="white"/>
</clipPath>
</defs>
</svg>
