<svg width="32" height="32" viewBox="0 0 32 32" fill="none" xmlns="http://www.w3.org/2000/svg">
<path d="M25.2227 23.4069H23.4667L23.4748 22.3868C23.4748 21.9335 23.8471 21.5627 24.3019 21.5627H24.4139C24.8697 21.5627 25.243 21.9335 25.243 22.3868L25.2227 23.4069ZM18.6357 21.221C18.1902 21.221 17.8258 21.5204 17.8258 21.8869V26.848C17.8258 27.2139 18.1902 27.5125 18.6357 27.5125C19.083 27.5125 19.4478 27.2139 19.4478 26.848V21.8869C19.4478 21.52 19.083 21.221 18.6357 21.221ZM29.3333 18.4459V27.8837C29.3333 30.1476 27.3703 32 24.9707 32H7.02968C4.62932 32 2.66666 30.1476 2.66666 27.8837V18.4459C2.66666 16.182 4.62932 14.3292 7.02968 14.3292H24.9707C27.3703 14.3292 29.3333 16.182 29.3333 18.4459ZM8.22648 28.9084L8.22506 18.9668L10.4491 18.9675V17.4944L4.52052 17.4855V18.9337L6.37119 18.939V28.9084H8.22648ZM14.8931 20.4476H13.0389V25.7564C13.0389 26.5244 13.0855 26.9084 13.0361 27.0439C12.8853 27.4556 12.2076 27.893 11.9435 27.0884C11.8987 26.9476 11.9381 26.5227 11.9374 25.7931L11.9299 20.4476H10.086L10.0917 25.7092C10.0931 26.5156 10.0736 27.1168 10.0981 27.3906C10.1433 27.8731 10.1273 28.4356 10.5749 28.757C11.4091 29.3579 13.008 28.6674 13.408 27.8084L13.4044 28.9045L14.8935 28.9063L14.8931 20.4476ZM20.8249 26.5269L20.821 22.1084C20.8195 20.4245 19.5598 19.4162 17.8499 20.7787L17.8574 17.4937L16.0053 17.4965L15.9964 28.8352L17.5196 28.8132L17.6583 28.107C19.6043 29.8923 20.8277 28.6688 20.8249 26.5269ZM26.6279 25.9413L25.2377 25.9488C25.237 26.0039 25.2348 26.0676 25.2341 26.1369V26.9127C25.2341 27.328 24.891 27.6661 24.4743 27.6661H24.2019C23.7845 27.6661 23.4414 27.328 23.4414 26.9127V26.8267V25.9733V24.8722H26.6251V23.674C26.6251 22.7982 26.6027 21.9228 26.5301 21.4222C26.3022 19.8386 24.0793 19.5872 22.9564 20.3979C22.6041 20.651 22.3349 20.9899 22.1785 21.445C22.0206 21.9004 21.942 22.5227 21.942 23.3131V25.9477C21.9427 30.3275 27.2626 29.7084 26.6279 25.9413ZM19.4962 11.638C19.5918 11.8706 19.7404 12.059 19.942 12.2012C20.1411 12.3413 20.3957 12.4117 20.7008 12.4117C20.9682 12.4117 21.205 12.3396 21.4112 12.1906C21.6167 12.0423 21.7899 11.8208 21.9314 11.5253L21.8962 12.2528H23.963V3.46311H22.336V10.304C22.336 10.6745 22.0309 10.9778 21.6579 10.9778C21.2871 10.9778 20.981 10.6745 20.981 10.304V3.46311H19.2828V9.39164C19.2828 10.1468 19.2967 10.6503 19.3191 10.9056C19.3422 11.1591 19.4005 11.4023 19.4962 11.638ZM13.2327 6.67378C13.2327 5.83004 13.3031 5.1712 13.4428 4.69618C13.5836 4.22293 13.8364 3.84249 14.2027 3.55556C14.5678 3.2672 15.0354 3.12284 15.6039 3.12284C16.0821 3.12284 16.4917 3.21671 16.8338 3.40053C17.1776 3.58542 17.4428 3.82542 17.6267 4.1216C17.814 4.41884 17.9413 4.72427 18.0092 5.0368C18.0786 5.3536 18.1127 5.83147 18.1127 6.47609V8.69902C18.1127 9.51431 18.08 10.1141 18.0163 10.4949C17.9534 10.8768 17.8183 11.2309 17.6089 11.563C17.4027 11.8916 17.1363 12.1372 16.8135 12.294C16.4871 12.4523 16.1138 12.5298 15.6921 12.5298C15.221 12.5298 14.8242 12.4647 14.4971 12.3289C14.1689 12.1938 13.9154 11.99 13.7347 11.7195C13.5523 11.4485 13.424 11.1186 13.3465 10.7339C13.2686 10.3495 13.2316 9.77138 13.2316 9.00089L13.2327 6.67378ZM14.8515 10.1653C14.8515 10.6631 15.222 11.0695 15.6732 11.0695C16.1248 11.0695 16.4939 10.6631 16.4939 10.1653V5.48622C16.4939 4.98916 16.1248 4.58276 15.6732 4.58276C15.222 4.58276 14.8515 4.98916 14.8515 5.48622V10.1653ZM9.13137 12.528H11.0812L11.0834 5.78667L13.3874 0.0117333H11.2547L10.0299 4.30116L8.78755 0H6.67697L9.12817 5.78987L9.13137 12.528Z" fill="black"/>
</svg>
